# xmcd CD database file
#
# Track frame offsets:
#	150
#	13365
#	26703
#	38329
#	51418
#	61239
#	76733
#	91426
#	104452
#	119078
#	132207
#	149692
#
# Disc length: 2164 seconds
#
# Revision: 1
# Processed by: cddbd v1.5.2PL0 Copyright (c) Steve Scherf et al.
# Submitted via: CDex 1.70beta2
#
DISCID=a808720c
DTITLE=Crystal Gayle - When I Dream
DYEAR=1978
DGENRE=Country-Rock, Soft Rock
TTITLE0=Why Have You Left The One You Left Me For
TTITLE1=Heart Mender
TTITLE2=Hello I Love You
TTITLE3=Talking In Your Sleep
TTITLE4=Paintin' This Old Town Blue
TTITLE5=When I Dream
TTITLE6=Don't Treat Me Like A Stranger
TTITLE7=Too Good To Throw Away
TTITLE8=Cry Me A River
TTITLE9=Wayward Wind
TTITLE10=Someday Soon
TTITLE11=I Still Miss Someone
EXTD=We Must Believe In Magic (1977) and When I Dream (1978) re-released as a 2 CD set in 2007. YEAR: 1978
EXTT0=
EXTT1=
EXTT2=
EXTT3=
EXTT4=
EXTT5=
EXTT6=
EXTT7=
EXTT8=
EXTT9=
EXTT10=
EXTT11=
PLAYORDER=
